<svg width="60.622925" height="60.648438" viewBox="0 0 60.6229 60.6484" fill="none" xmlns="http://www.w3.org/2000/svg" xmlns:xlink="http://www.w3.org/1999/xlink">
	<desc>
			Created with Pixso.
	</desc>
	<defs/>
	<path id="Vector" d="M36.24 11.89L13.74 11.89C12.71 11.89 11.87 12.73 11.87 13.77C11.87 14.8 12.71 15.64 13.74 15.64L36.24 15.64C37.28 15.64 38.12 14.8 38.12 13.77C38.12 12.73 37.28 11.89 36.24 11.89Z" fill="#2352DE" fill-opacity="1.000000" fill-rule="nonzero"/>
	<path id="Vector" d="M28.74 19.39L13.74 19.39C12.71 19.39 11.87 20.23 11.87 21.27C11.87 22.3 12.71 23.14 13.74 23.14L28.74 23.14C29.78 23.14 30.62 22.3 30.62 21.27C30.62 20.23 29.78 19.39 28.74 19.39Z" fill="#2352DE" fill-opacity="1.000000" fill-rule="nonzero"/>
	<path id="Vector" d="M42.49 1.11L8.76 0.2C4.62 0.09 1.17 3.36 1.06 7.49L0.05 44.98C0.03 45.71 0.43 46.38 1.08 46.71C1.33 46.83 1.6 46.9 1.87 46.9C2.3 46.92 2.73 46.78 3.08 46.5L14.05 37.85L41.48 38.59C45.62 38.7 49.07 35.43 49.18 31.3L49.79 8.81C49.9 4.67 46.63 1.22 42.49 1.11ZM45.43 31.2C45.38 33.26 43.65 34.9 41.58 34.84L13.47 34.09C13.03 34.07 12.6 34.22 12.26 34.49L3.9 41.08L4.8 7.59C4.86 5.53 6.59 3.89 8.65 3.95L42.39 4.86C44.46 4.91 46.1 6.64 46.04 8.7L45.43 31.2Z" fill="#2352DE" fill-opacity="1.000000" fill-rule="nonzero"/>
	<path id="Vector" d="M53.12 15.64C52.08 15.64 51.24 16.48 51.24 17.52C51.24 18.55 52.08 19.39 53.12 19.39C55.19 19.39 56.87 21.08 56.87 23.14L56.87 54.86L50.54 49.8C50.21 49.54 49.79 49.39 49.37 49.39L23.12 49.39C21.05 49.39 19.37 47.71 19.37 45.64L19.37 43.77C19.37 42.73 18.53 41.89 17.49 41.89C16.46 41.89 15.62 42.73 15.62 43.77L15.62 45.64C15.62 49.78 18.98 53.14 23.12 53.14L48.71 53.14L57.57 60.23C57.91 60.5 58.33 60.64 58.74 60.64C59.02 60.64 59.29 60.58 59.56 60.46C60.21 60.14 60.62 59.49 60.62 58.77L60.62 23.14C60.62 19.01 57.25 15.64 53.12 15.64Z" fill="#2352DE" fill-opacity="1.000000" fill-rule="nonzero"/>
</svg>
